# xmcd CD database file
#
# Track frame offsets:
#	151
#	16394
#	30309
#	47748
#	62039
#	80158
#	90775
#	107462
#	121599
#	134162
#
# Disc length: 1961 seconds
#
# Revision: 1
# Processed by: cddbd v1.5.1PL0 Copyright (c) Steve Scherf et al.
# Submitted via: CDex 1.50beta10
#
DISCID=7407a70a
DTITLE=Sandro y 9 Grandes Idolos de La Balada Romántica - 100 años de Musica (DIMSA)
DYEAR=2004
DGENRE=Romántico
TTITLE0=Sandro - Penumbras
TTITLE1=Johnny Dynamo - Palabras
TTITLE2=Yaco Monti - La Barca
TTITLE3=Angelica Maria - Yo Que No Vivo Sin Ti
TTITLE4=Gualberto Castro - Ya No Me Quieres
TTITLE5=Al Suarez - Sueño imposible
TTITLE6=King Clave - Mi Corazón Lloro
TTITLE7=Diana Vanoni - Solo Llame Para Decirte Que Te Amo
TTITLE8=Enrique Guzman - Cariño y Desprecio
TTITLE9=Lus and Sombra  Los Pasteles Verdes
EXTD=YEAR: 2004
EXTT0=
EXTT1=
EXTT2=
EXTT3=
EXTT4=
EXTT5=
EXTT6=
EXTT7=
EXTT8=
EXTT9=
PLAYORDER=
